<svg width="16" height="17" viewBox="0 0 16 17" fill="none" xmlns="http://www.w3.org/2000/svg">
<path d="M11.0129 1.33163C11.9579 1.33163 12.8642 1.71744 13.5324 2.4042C14.2006 3.09095 14.576 4.02239 14.576 4.99361V11.3188C14.576 12.2901 14.2006 13.2215 13.5324 13.9083C12.8642 14.595 11.9579 14.9808 11.0129 14.9808H4.85865C3.91368 14.9808 3.00741 14.595 2.33922 13.9083C1.67102 13.2215 1.29564 12.2901 1.29564 11.3188V4.99361C1.29564 4.02239 1.67103 3.09095 2.33922 2.4042C3.00741 1.71744 3.91368 1.33163 4.85865 1.33163H11.0129H11.0129ZM11.0129 0H4.85865C3.57124 0.00395296 2.33765 0.531333 1.42731 1.46696C0.516973 2.40259 0.00384612 3.67044 0 4.99361V11.3188C0.00384379 12.642 0.51697 13.9099 1.42731 14.8455C2.33765 15.7811 3.57124 16.3085 4.85865 16.3125H11.0129C12.3003 16.3085 13.5339 15.7811 14.4443 14.8455C15.3546 13.9099 15.8677 12.642 15.8716 11.3189V4.99361C15.8677 3.67044 15.3546 2.40259 14.4443 1.46696C13.5339 0.531333 12.3004 0.00395296 11.0129 0H11.0129Z" fill="#A4BFD0"/>
<path d="M12.1702 2.82813C11.9866 2.82813 11.8072 2.88406 11.6546 2.98887C11.502 3.09367 11.3831 3.24263 11.3128 3.41691C11.2426 3.59119 11.2242 3.78296 11.26 3.96798C11.2958 4.15299 11.3842 4.32294 11.514 4.45633C11.6438 4.58972 11.8091 4.68056 11.9891 4.71736C12.1692 4.75416 12.3558 4.73527 12.5253 4.66308C12.6949 4.59089 12.8398 4.46864 12.9418 4.3118C13.0438 4.15495 13.0982 3.97054 13.0982 3.7819C13.0982 3.65665 13.0742 3.53263 13.0276 3.41691C12.9809 3.30119 12.9126 3.19605 12.8264 3.10748C12.7402 3.01891 12.6379 2.94866 12.5253 2.90073C12.4127 2.85279 12.2921 2.82812 12.1702 2.82813Z" fill="#A4BFD0"/>
<path d="M7.97862 5.2369C8.54494 5.23657 9.09864 5.40885 9.56969 5.73194C10.0408 6.05504 10.408 6.51444 10.625 7.05206C10.842 7.58968 10.8991 8.18137 10.7889 8.7523C10.6787 9.32323 10.4063 9.84777 10.0061 10.2596C9.60588 10.6714 9.09583 10.952 8.54045 11.0658C7.98508 11.1797 7.40932 11.1218 6.88598 10.8993C6.36265 10.6769 5.91524 10.3 5.60035 9.81618C5.28545 9.3324 5.1172 8.76352 5.11688 8.18147V8.17814C5.11817 7.39848 5.42008 6.65114 5.95648 6.09983C6.49288 5.54853 7.22003 5.23823 7.97862 5.2369ZM7.97862 3.90527C6.87571 3.90616 5.81828 4.35719 5.03886 5.1592C4.25944 5.96121 3.82184 7.04853 3.82227 8.18208C3.8227 9.31563 4.26113 10.4026 5.04116 11.204C5.82119 12.0054 6.87895 12.4556 7.98186 12.4556C9.08478 12.4556 10.1425 12.0054 10.9226 11.204C11.7026 10.4026 12.141 9.31563 12.1415 8.18208C12.1419 7.04853 11.7043 5.96121 10.9249 5.1592C10.1454 4.35719 9.08802 3.90616 7.98511 3.90527H7.97862Z" fill="#A4BFD0"/>
</svg>
