<svg width="16" height="16" viewBox="0 0 16 16" fill="none" xmlns="http://www.w3.org/2000/svg">
<path d="M12.8205 16.0029C12.1233 16.0029 11.1438 15.7507 9.67704 14.9313C7.89346 13.9311 6.5139 13.0077 4.73996 11.2384C3.02961 9.52912 2.1973 8.42246 1.03242 6.30274C-0.283565 3.9094 -0.0592336 2.65485 0.191532 2.11867C0.490164 1.47783 0.930969 1.09454 1.50073 0.7141C1.82435 0.50207 2.16682 0.320312 2.52379 0.171132C2.55952 0.155772 2.59274 0.141126 2.62239 0.127909C2.79921 0.0482499 3.06712 -0.0721318 3.40648 0.0564659C3.63295 0.141483 3.83513 0.315447 4.15163 0.628011C4.80069 1.26814 5.68766 2.69379 6.01487 3.39393C6.23455 3.86582 6.37994 4.17731 6.3803 4.52667C6.3803 4.93568 6.17454 5.2511 5.92485 5.59153C5.87805 5.65547 5.83161 5.71655 5.7866 5.77585C5.51476 6.13307 5.45511 6.2363 5.4944 6.42062C5.57406 6.79106 6.16811 7.89378 7.14438 8.86791C8.12065 9.84204 9.19159 10.3986 9.56345 10.4779C9.75563 10.519 9.86101 10.4568 10.2297 10.1753C10.2825 10.135 10.3368 10.0932 10.3936 10.0514C10.7744 9.7681 11.0752 9.5677 11.4746 9.5677H11.4767C11.8243 9.5677 12.1218 9.71844 12.6148 9.96706C13.2578 10.2914 14.7263 11.167 15.3703 11.8167C15.6836 12.1325 15.8583 12.334 15.9437 12.5601C16.0723 12.9005 15.9512 13.1674 15.8722 13.346C15.859 13.3756 15.8444 13.4081 15.829 13.4442C15.6787 13.8005 15.4958 14.1423 15.2828 14.4651C14.9031 15.0331 14.5184 15.4728 13.8761 15.7718C13.5463 15.9278 13.1854 16.0069 12.8205 16.0029Z" fill="#134575"/>
</svg>
