<svg width="18" height="18" viewBox="0 0 18 18" fill="none" xmlns="http://www.w3.org/2000/svg">
<path d="M9 18C4.0293 18 0 13.9707 0 9C0 4.0293 4.0293 0 9 0C13.9707 0 18 4.0293 18 9C18 13.9707 13.9707 18 9 18ZM4.5117 14.6304C5.78569 15.6489 7.36891 16.2026 9 16.2C10.773 16.2 12.3957 15.5592 13.6503 14.4972C13.0642 13.8958 12.3633 13.418 11.5893 13.0921C10.8153 12.7663 9.98381 12.5989 9.144 12.6C8.27333 12.599 7.41195 12.779 6.61452 13.1285C5.81708 13.478 5.101 13.9895 4.5117 14.6304ZM3.2544 13.338C4.01081 12.5353 4.9236 11.8959 5.93652 11.4594C6.94945 11.0229 8.04103 10.7985 9.144 10.8C10.2075 10.7986 11.2608 11.0073 12.2434 11.4141C13.226 11.821 14.1185 12.4179 14.8698 13.1706C15.6403 12.0862 16.0953 10.8096 16.1843 9.48232C16.2733 8.15507 15.993 6.8291 15.3742 5.65151C14.7555 4.47392 13.8227 3.49076 12.6792 2.8111C11.5357 2.13144 10.2262 1.78185 8.89614 1.80113C7.56605 1.8204 6.26729 2.20778 5.14397 2.92028C4.02064 3.63279 3.11666 4.64256 2.53232 5.83758C1.94798 7.0326 1.70612 8.36614 1.83358 9.69025C1.96104 11.0144 2.45284 12.2764 3.2544 13.338ZM9 9.9C8.04522 9.9 7.12955 9.52072 6.45442 8.84558C5.77928 8.17045 5.4 7.25478 5.4 6.3C5.4 5.34522 5.77928 4.42955 6.45442 3.75442C7.12955 3.07928 8.04522 2.7 9 2.7C9.95478 2.7 10.8705 3.07928 11.5456 3.75442C12.2207 4.42955 12.6 5.34522 12.6 6.3C12.6 7.25478 12.2207 8.17045 11.5456 8.84558C10.8705 9.52072 9.95478 9.9 9 9.9ZM9 8.1C9.47739 8.1 9.93523 7.91036 10.2728 7.57279C10.6104 7.23523 10.8 6.77739 10.8 6.3C10.8 5.82261 10.6104 5.36477 10.2728 5.02721C9.93523 4.68964 9.47739 4.5 9 4.5C8.52261 4.5 8.06477 4.68964 7.72721 5.02721C7.38964 5.36477 7.2 5.82261 7.2 6.3C7.2 6.77739 7.38964 7.23523 7.72721 7.57279C8.06477 7.91036 8.52261 8.1 9 8.1Z" fill="#009BDF"/>
</svg>
